<svg version="1.1" id="Layer_1" xmlns="http://www.w3.org/2000/svg" xmlns:xlink="http://www.w3.org/1999/xlink" x="0px" y="0px"
	 width="100%" viewBox="0 0 1024 1024" enable-background="new 0 0 1024 1024" xml:space="preserve">
<path fill="#18374F" opacity="1.000000" stroke="none" 
	d="
M706.000000,1025.000000 
	C470.666656,1025.000000 235.833328,1025.000000 1.000000,1025.000000 
	C1.000000,683.666687 1.000000,342.333344 1.000000,1.000000 
	C342.333344,1.000000 683.666687,1.000000 1025.000000,1.000000 
	C1025.000000,342.333344 1025.000000,683.666687 1025.000000,1025.000000 
	C918.833313,1025.000000 812.666687,1025.000000 706.000000,1025.000000 
M287.935791,462.709106 
	C276.108246,462.521362 264.279724,462.378754 252.453598,462.125427 
	C247.130142,462.011414 243.976944,464.424042 242.874908,469.621552 
	C241.064499,478.159973 241.869553,486.481506 244.765564,494.670105 
	C246.865387,500.607513 250.877914,504.344208 257.236786,504.552979 
	C275.198975,505.142609 293.213196,506.444855 311.127228,505.656189 
	C336.972107,504.518433 362.359344,499.562775 387.343903,492.737122 
	C395.456940,490.520691 396.048309,490.967194 397.045135,499.231995 
	C400.880981,531.034424 408.710449,561.755920 421.686676,591.111816 
	C425.342438,599.382141 424.870239,600.374268 417.844971,606.312073 
	C401.813843,619.861511 385.379089,632.987610 370.019775,647.266235 
	C339.511353,675.628052 313.263580,707.446655 296.659821,746.116272 
	C286.189636,770.500977 280.070374,795.731079 286.947327,822.487061 
	C295.649536,856.344788 322.919952,874.043213 354.670013,873.690308 
	C374.590485,873.468933 393.529755,867.112976 410.342957,856.229736 
	C468.474121,818.601135 498.221130,764.427673 501.843933,695.771606 
	C503.127655,671.443726 498.413910,647.697510 491.407654,624.411438 
	C488.617828,615.139160 489.311798,613.351013 497.468018,608.416870 
	C514.577087,598.066833 531.701965,587.737488 548.976807,577.667908 
	C581.550354,558.680786 614.892883,541.257629 650.334595,528.087891 
	C675.146484,518.868042 700.825562,513.287476 726.867004,509.140991 
	C731.035889,508.477203 733.482056,506.732483 734.130676,502.347595 
	C736.735779,484.734650 719.407898,466.069214 701.532410,469.328400 
	C672.677795,474.589386 644.832764,482.750092 617.697266,493.684814 
	C576.395752,510.327850 538.296021,532.953247 500.474274,556.119995 
	C493.087799,560.644409 485.679840,565.158386 478.068634,569.283875 
	C471.179077,573.018127 465.683594,571.501831 461.067932,565.193542 
	C459.990204,563.720642 459.022003,562.141296 458.200073,560.511719 
	C447.287476,538.874817 442.123413,515.809570 440.940094,491.708282 
	C440.460388,481.938416 444.304413,475.728912 453.318329,471.193909 
	C490.705994,452.383789 525.190308,429.092896 556.602112,401.415405 
	C595.010437,367.573181 628.836731,329.916870 652.229370,283.841095 
	C668.868530,251.067551 678.744263,216.580643 676.856079,179.503998 
	C675.570618,154.262115 665.512085,133.865784 642.159546,121.542465 
	C627.391174,113.749069 611.586426,113.718605 595.806519,115.769272 
	C577.766846,118.113594 561.704163,125.903801 547.218323,136.786316 
	C525.665222,152.978104 508.172333,173.027359 493.078491,195.187347 
	C458.459259,246.013596 435.180359,302.020966 418.956879,361.021698 
	C412.116180,385.899536 407.035339,411.263794 401.283661,436.436493 
	C400.063446,441.776855 397.569305,445.425110 391.993103,446.950134 
	C361.194000,455.373444 329.980438,461.152496 297.267395,461.954468 
	C294.460358,462.203583 291.653290,462.452728 287.935791,462.709106 
z"/>
<path fill="#091217" opacity="1.000000" stroke="none" 
	d="
M297.989990,462.184509 
	C329.980438,461.152496 361.194000,455.373444 391.993103,446.950134 
	C397.569305,445.425110 400.063446,441.776855 401.283661,436.436493 
	C407.035339,411.263794 412.116180,385.899536 418.956879,361.021698 
	C435.180359,302.020966 458.459259,246.013596 493.078491,195.187347 
	C508.172333,173.027359 525.665222,152.978104 547.218323,136.786316 
	C561.704163,125.903801 577.766846,118.113594 595.806519,115.769272 
	C611.586426,113.718605 627.391174,113.749069 642.159546,121.542465 
	C665.512085,133.865784 675.570618,154.262115 676.856079,179.503998 
	C678.744263,216.580643 668.868530,251.067551 652.229370,283.841095 
	C628.836731,329.916870 595.010437,367.573181 556.602112,401.415405 
	C525.190308,429.092896 490.705994,452.383789 453.318329,471.193909 
	C444.304413,475.728912 440.460388,481.938416 440.940094,491.708282 
	C442.123413,515.809570 447.287476,538.874817 458.200073,560.511719 
	C459.022003,562.141296 459.990204,563.720642 461.067932,565.193542 
	C465.683594,571.501831 471.179077,573.018127 478.068634,569.283875 
	C485.679840,565.158386 493.087799,560.644409 500.474274,556.119995 
	C538.296021,532.953247 576.395752,510.327850 617.697266,493.684814 
	C644.832764,482.750092 672.677795,474.589386 701.532410,469.328400 
	C719.407898,466.069214 736.735779,484.734650 734.130676,502.347595 
	C733.482056,506.732483 731.035889,508.477203 726.867004,509.140991 
	C700.825562,513.287476 675.146484,518.868042 650.334595,528.087891 
	C614.892883,541.257629 581.550354,558.680786 548.976807,577.667908 
	C531.701965,587.737488 514.577087,598.066833 497.468018,608.416870 
	C489.311798,613.351013 488.617828,615.139160 491.407654,624.411438 
	C498.413910,647.697510 503.127655,671.443726 501.843933,695.771606 
	C498.221130,764.427673 468.474121,818.601135 410.342957,856.229736 
	C393.529755,867.112976 374.590485,873.468933 354.670013,873.690308 
	C322.919952,874.043213 295.649536,856.344788 286.947327,822.487061 
	C280.070374,795.731079 286.189636,770.500977 296.659821,746.116272 
	C313.263580,707.446655 339.511353,675.628052 370.019775,647.266235 
	C385.379089,632.987610 401.813843,619.861511 417.844971,606.312073 
	C424.870239,600.374268 425.342438,599.382141 421.686676,591.111816 
	C408.710449,561.755920 400.880981,531.034424 397.045135,499.231995 
	C396.048309,490.967194 395.456940,490.520691 387.343903,492.737122 
	C362.359344,499.562775 336.972107,504.518433 311.127228,505.656189 
	C293.213196,506.444855 275.198975,505.142609 257.236786,504.552979 
	C250.877914,504.344208 246.865387,500.607513 244.765564,494.670105 
	C241.869553,486.481506 241.064499,478.159973 242.874908,469.621552 
	C243.976944,464.424042 247.130142,462.011414 252.453598,462.125427 
	C264.279724,462.378754 276.108246,462.521362 288.830475,462.752106 
	C292.480103,462.591583 295.235046,462.388031 297.989990,462.184509 
M460.130981,372.654419 
	C456.090729,389.515320 452.050446,406.376221 448.010193,423.237152 
	C448.485565,423.542450 448.960907,423.847748 449.436249,424.153046 
	C451.472687,423.239075 453.597046,422.480835 455.532745,421.388397 
	C503.071777,394.559967 544.128601,359.984558 578.705566,317.774597 
	C603.939575,286.970001 623.295776,253.117325 631.638733,213.674179 
	C634.248901,201.333817 635.327087,188.962219 633.045593,176.480484 
	C631.229492,166.544800 625.266602,160.336166 615.282104,158.710754 
	C610.921814,158.000916 606.285156,157.959793 601.908630,158.574036 
	C589.478943,160.318512 579.103638,166.694351 569.474854,174.313110 
	C551.768127,188.323502 537.860291,205.754211 525.440308,224.395935 
	C495.210205,269.769592 474.910370,319.562897 460.130981,372.654419 
M454.570007,660.027161 
	C453.196869,655.577087 452.145416,650.994141 450.375214,646.708069 
	C447.716034,640.269775 445.445038,639.720398 440.005585,644.209778 
	C427.033691,654.915894 413.783966,665.340454 401.430573,676.729309 
	C376.776917,699.458069 355.594391,725.068970 340.225525,755.103821 
	C333.096497,769.035889 328.024048,783.663940 328.088501,799.523926 
	C328.176636,821.212585 342.621643,832.878601 364.007812,829.242310 
	C376.539581,827.111572 387.596680,821.702576 397.163910,813.773621 
	C445.383209,773.810852 466.237244,723.367432 454.570007,660.027161 
z"/>
<path fill="#0D2435" opacity="1.000000" stroke="none" 
	d="
M297.628693,462.069489 
	C295.235046,462.388031 292.480103,462.591583 289.285706,462.748474 
	C291.653290,462.452728 294.460358,462.203583 297.628693,462.069489 
z"/>
<path fill="#1A384F" opacity="1.000000" stroke="none" 
	d="
M460.236572,372.261627 
	C474.910370,319.562897 495.210205,269.769592 525.440308,224.395935 
	C537.860291,205.754211 551.768127,188.323502 569.474854,174.313110 
	C579.103638,166.694351 589.478943,160.318512 601.908630,158.574036 
	C606.285156,157.959793 610.921814,158.000916 615.282104,158.710754 
	C625.266602,160.336166 631.229492,166.544800 633.045593,176.480484 
	C635.327087,188.962219 634.248901,201.333817 631.638733,213.674179 
	C623.295776,253.117325 603.939575,286.970001 578.705566,317.774597 
	C544.128601,359.984558 503.071777,394.559967 455.532745,421.388397 
	C453.597046,422.480835 451.472687,423.239075 449.436249,424.153046 
	C448.960907,423.847748 448.485565,423.542450 448.010193,423.237152 
	C452.050446,406.376221 456.090729,389.515320 460.236572,372.261627 
z"/>
<path fill="#1A384E" opacity="1.000000" stroke="none" 
	d="
M454.670105,660.432373 
	C466.237244,723.367432 445.383209,773.810852 397.163910,813.773621 
	C387.596680,821.702576 376.539581,827.111572 364.007812,829.242310 
	C342.621643,832.878601 328.176636,821.212585 328.088501,799.523926 
	C328.024048,783.663940 333.096497,769.035889 340.225525,755.103821 
	C355.594391,725.068970 376.776917,699.458069 401.430573,676.729309 
	C413.783966,665.340454 427.033691,654.915894 440.005585,644.209778 
	C445.445038,639.720398 447.716034,640.269775 450.375214,646.708069 
	C452.145416,650.994141 453.196869,655.577087 454.670105,660.432373 
z"/>
</svg>